# xmcd
#
# Track frame offsets:
#	150
#	12864
#	31105
#	46203
#	63239
#	76751
#	90159
#	101407
#	118372
#	134678
#	155940
#	174252
#	186294
#	207428
#	225552
#	239806
#	252415
#	268536
#
# Disc length: 3808 seconds
#
# Revision: 0
# Processed by: cddbd v1.5.2PL0 Copyright (c) Steve Scherf et al.
# Submitted via: EasyCDDAExtractor 16.0.6.1
#
DISCID=f10ede12
DTITLE=Συλλογικός δίσκος - Στου τραγουδιού την όχθη 1-2
DYEAR=2011
DGENRE=Έντεχνη λαϊκή
TTITLE0=Αρβανιτάκη Ελευθερία-Ξυδάκης Νίκος - Στην αρχή του τραγουδιού [Ν. Ξυδά
TTITLE0=κης-Κ. Γουδής]
TTITLE1=Παπάζογλου Νίκος - Αχ, Ελλάδα [Β. Αλαγιάννη-Μ. Ρασούλης]
TTITLE2=Γλυκερία - Πάρε με απόψε, πάρε με [Ν. Ζιώγαλας]
TTITLE3=Στόκας Μπάμπης - Πριγκηπέσσα [Σ. Μάλαμας]
TTITLE4=Ξυδάκης Νίκος-Γλυκερία-Λιδάκης Μανώλης - Στο Σου Μι Τζου κάποια βραδιά
TTITLE4=[Ν. Ξυδάκης-Μ. Γκανάς]
TTITLE5=Σπυριδάκη Κάλια-Χαΐνηδες - Βαθύ κόκκιν' αχείλι [Κ. Σπυριδάκη-Δ. Αποστο
TTITLE5=λάκης]
TTITLE6=Χειμερινοί Κολυμβητές - Από το πάρκο στη Μυροβόλο [Αργύρης Μπακιρτζής]
TTITLE7=Κατσιμίχας Χάρης-Apurimac - Το λουλούδι του δάσους[ινδιάνικο αγνώστου,
TTITLE7=απ. Χ.Κατσιμίχας]
TTITLE8=Ζιώγαλας Νίκος - Θα σού φανερωθώ [Ν. Ζιώγαλας]
TTITLE9=Μπάσης Δημήτρης - Σπασμένο καράβι [Γ. Σπανός-Γ. Σκαρίμπας]
TTITLE10=Μακεδόνας Κώστας-Ορχ. Εγχ. Δήμου Πατρέων - Τα σμυρναίϊκα τραγούδια [Π
TTITLE10=Θαλασσινός-Η. Κατσούλης]
TTITLE11=Λιδάκης Μανώλης - Τραβώ καπνό, φυσώ καπνό [Ν. Ξυδάκης-Μ. Ρασούλης]
TTITLE12=Τσαλιγοπούλου Ελένη - Ένα σφάλμα έκανα [Θ. Δερβενιώτης-Ν. Μουρκάκος]
TTITLE13=Δημητριάδης Γιώργος-Καζούλλης Βασίλης - Αεροπλάνα [Βασίλης Καζούλλης]
TTITLE14=Ανδρεάτος Γεράσιμος - Χρώμα δεν αλλάζουνε τα μάτια [Δ. Παπαδημητρίου-
TTITLE14=Μ. Γκανάς]
TTITLE15=Μητσιάς Μανώλης - Δακρυσμένα μάτια [Μ. Θεοδωράκης-Γ. Θεοδωράκης]
TTITLE16=Ιωαννίδης Αλκίνοος-Τσιαμούλης Χρίστος - Σαν τα κορίτσια που γελάν [Χ.
TTITLE16=Τσιαμούλης-Β. Νικολαΐδης]
TTITLE17=Λουδοβίκος των Ανωγείων-Παπάζογλου Ν.-Μάλαμας Σ. - Πύλη της άμμου [Λο
TTITLE17=υδοβίκος των Ανωγείων]
EXTD=
EXTT0=
EXTT1=
EXTT2=
EXTT3=
EXTT4=
EXTT5=
EXTT6=
EXTT7=
EXTT8=
EXTT9=
EXTT10=
EXTT11=
EXTT12=
EXTT13=
EXTT14=
EXTT15=
EXTT16=
EXTT17=
PLAYORDER=
